HIERARCHY
ROOT joint_Root
{
	OFFSET 0.0 0.0 0.0
	CHANNELS 6 Xposition Yposition Zposition Zrotation Xrotation Yrotation 
	JOINT Hips
	{
		OFFSET 4.5925 91.4895 -427.239
		CHANNELS 6 Xposition Yposition Zposition Zrotation Xrotation Yrotation 
		JOINT Spine
		{
			OFFSET 15.7357 0.0 0.0
			CHANNELS 6 Xposition Yposition Zposition Zrotation Xrotation Yrotation 
			JOINT Chest
			{
				OFFSET 8.98455 -0.406207 0.0
				CHANNELS 6 Xposition Yposition Zposition Zrotation Xrotation Yrotation 
				JOINT Neck
				{
					OFFSET 16.3773 0.0 0.0
					CHANNELS 6 Xposition Yposition Zposition Zrotation Xrotation Yrotation 
					JOINT Head
					{
						OFFSET 6.45672 0.0 0.0
						CHANNELS 6 Xposition Yposition Zposition Zrotation Xrotation Yrotation 
						End Site
						{
							OFFSET 0.0 0.0 0.0
						}
					}
				}
				JOINT Shoulder_L
				{
					OFFSET 12.9942 -0.242716 4.98039
					CHANNELS 6 Xposition Yposition Zposition Zrotation Xrotation Yrotation 
					JOINT UpperArm_L
					{
						OFFSET 5.34809 0.0 0.0
						CHANNELS 6 Xposition Yposition Zposition Zrotation Xrotation Yrotation 
						JOINT LowerArm_L
						{
							OFFSET 24.3286 1.87007e-05 0.0
							CHANNELS 6 Xposition Yposition Zposition Zrotation Xrotation Yrotation 
							JOINT Hand_L
							{
								OFFSET 22.2916 0.0 0.0
								CHANNELS 6 Xposition Yposition Zposition Zrotation Xrotation Yrotation 
								End Site
								{
									OFFSET 0.0 0.0 0.0
								}
							}
						}
					}
				}
				JOINT Shoulder_R
				{
					OFFSET 12.9945 -0.242716 -4.98039
					CHANNELS 6 Xposition Yposition Zposition Zrotation Xrotation Yrotation 
					JOINT UpperArm_R
					{
						OFFSET -5.34813 0.0 0.0
						CHANNELS 6 Xposition Yposition Zposition Zrotation Xrotation Yrotation 
						JOINT LowerArm_R
						{
							OFFSET -24.3289 0.000322201 0.0
							CHANNELS 6 Xposition Yposition Zposition Zrotation Xrotation Yrotation 
							JOINT Hand_R
							{
								OFFSET -22.2915 -0.000108084 0.0
								CHANNELS 6 Xposition Yposition Zposition Zrotation Xrotation Yrotation 
								End Site
								{
									OFFSET 0.0 0.0 0.0
								}
							}
						}
					}
				}
			}
		}
		JOINT UpperLeg_L
		{
			OFFSET -2.19248 -6.46944 0.0
			CHANNELS 6 Xposition Yposition Zposition Zrotation Xrotation Yrotation 
			JOINT LowerLeg_L
			{
				OFFSET 39.0811 0.0 -1.23785e-05
				CHANNELS 6 Xposition Yposition Zposition Zrotation Xrotation Yrotation 
				JOINT Foot_L
				{
					OFFSET 40.9854 0.0 -1.26872e-05
					CHANNELS 6 Xposition Yposition Zposition Zrotation Xrotation Yrotation 
					JOINT Toes_L
					{
						OFFSET 11.7543 0.0 0.0
						CHANNELS 6 Xposition Yposition Zposition Zrotation Xrotation Yrotation 
						End Site
						{
							OFFSET 0.0 0.0 0.0
						}
					}
				}
			}
		}
		JOINT UpperLeg_R
		{
			OFFSET -2.19251 6.46944 0.0
			CHANNELS 6 Xposition Yposition Zposition Zrotation Xrotation Yrotation 
			JOINT LowerLeg_R
			{
				OFFSET -39.0811 -0.00228153 -0.0401928
				CHANNELS 6 Xposition Yposition Zposition Zrotation Xrotation Yrotation 
				JOINT Foot_R
				{
					OFFSET -40.9854 0.0 0.0
					CHANNELS 6 Xposition Yposition Zposition Zrotation Xrotation Yrotation 
					JOINT Toes_R
					{
						OFFSET -11.7543 0.0 0.0
						CHANNELS 6 Xposition Yposition Zposition Zrotation Xrotation Yrotation 
						End Site
						{
							OFFSET 0.0 0.0 0.0
						}
					}
				}
			}
		}
	}
}
MOTION
Frames:	5
Frame Time:	0.0333333
0.000000 0.000000 0.000000 0.000000 0.000000 -0.000000 2.045060 80.010900 -31.606900 96.032000 -0.251851 -6.964880 15.735700 0.000005 -0.000001 86.343400 81.510300 -89.922900 8.984550 -0.406207 -0.000000 9.154920 -1.120660 -7.063430 16.377300 -0.000001 -0.000001 -4.296740 -4.010360 1.717700 6.456720 -0.000001 -0.000000 -7.610060 -5.578760 6.395890 12.994200 -0.242716 4.980390 -91.525700 4.810030 -72.393900 5.348090 -0.000007 -0.000001 -58.272000 14.132200 -21.821100 24.328600 0.000019 0.000005 35.305400 5.642210 -82.100700 22.291600 -0.000001 0.000005 -2.039410 5.530240 -7.812540 12.994500 -0.242716 -4.980390 88.085500 9.694600 -78.771400 -5.348130 -0.000001 -0.000004 -58.616000 23.759600 0.632653 -24.328900 0.000322 -0.000009 -9.052760 -9.586700 -43.709300 -22.291500 -0.000108 -0.000004 13.553600 5.590060 -10.803800 -2.192480 -6.469440 -0.000000 169.212000 -3.073790 -34.207800 39.081100 -0.000007 -0.000012 -1.045420 0.480342 65.325500 40.985400 -0.000006 -0.000013 1.335680 -7.734200 -88.761400 11.754300 -0.000000 0.000003 -0.000035 -0.000415 -16.593700 -2.192510 6.469440 -0.000001 172.086000 6.950020 142.586000 -39.081100 -0.002282 -0.040193 0.019505 0.015690 134.311000 -40.985400 0.000008 0.000006 -6.743300 1.795240 9.244080 -11.754300 -0.000006 -0.000006 -0.010823 -0.109688 -21.043100
0.000000 0.000000 0.000000 0.000000 0.000000 -0.000000 1.551110 79.667000 -20.523400 93.443700 3.924390 -7.524540 15.735700 0.000005 -0.000001 74.398900 81.509200 -76.491100 8.984550 -0.406207 -0.000000 8.529930 -4.558970 -3.841810 16.377300 -0.000001 -0.000001 -4.099910 -3.883420 0.992977 6.456720 -0.000001 -0.000000 -6.979470 -3.781280 6.295770 12.994200 -0.242716 4.980390 -90.415500 1.463180 -74.151000 5.348090 -0.000007 -0.000001 -58.082600 18.245900 -32.395700 24.328600 0.000019 0.000005 25.793900 0.188240 -89.645700 22.291600 -0.000001 0.000005 1.475700 5.491870 -6.244790 12.994500 -0.242716 -4.980390 87.767700 9.118860 -76.180300 -5.348130 -0.000001 -0.000004 -56.273400 27.776000 9.620500 -24.328900 0.000322 -0.000009 -3.997740 -3.945300 -45.429400 -22.291500 -0.000108 -0.000004 8.553200 5.603650 -11.559100 -2.192480 -6.469440 -0.000000 174.044000 -3.305950 -23.540500 39.081100 -0.000007 -0.000012 -1.060670 0.568890 61.796500 40.985400 -0.000006 -0.000013 1.594500 -3.679630 -96.006000 11.754300 -0.000000 0.000003 -0.000012 -0.000156 -16.583700 -2.192510 6.469440 -0.000001 178.120000 7.717410 130.350000 -39.081100 -0.002282 -0.040193 -0.351608 -0.367555 135.993000 -40.985400 0.000008 0.000006 -3.821070 2.140840 4.156510 -11.754300 -0.000006 -0.000006 -0.011578 -0.115076 -21.263700
0.000000 0.000000 0.000000 0.000000 0.000000 -0.000000 0.332818 81.702600 -8.035840 89.042400 7.605520 -8.891660 15.735700 0.000005 -0.000001 60.845900 81.595300 -60.777600 8.984550 -0.406207 -0.000000 6.972570 -8.161580 0.634657 16.377300 -0.000001 -0.000001 -3.262280 -3.494640 0.601718 6.456720 -0.000001 -0.000000 -6.512320 -1.102790 5.294410 12.994200 -0.242716 4.980390 -89.923200 -0.273214 -74.302900 5.348090 -0.000007 -0.000001 -56.838200 19.000200 -38.419700 24.328600 0.000019 0.000005 19.719900 -2.922620 -98.097200 22.291600 -0.000001 0.000005 3.425440 5.477800 -5.664360 12.994500 -0.242716 -4.980390 87.826600 7.400920 -73.577900 -5.348130 -0.000001 -0.000004 -55.980600 32.260200 17.088100 -24.328900 0.000322 -0.000009 -5.139540 -4.373350 -49.706200 -22.291500 -0.000108 -0.000004 6.651050 5.604120 -11.586200 -2.192480 -6.469440 -0.000000 -178.364000 -3.175160 -11.394900 39.081100 -0.000007 -0.000012 0.089465 -0.073653 50.535500 40.985400 -0.000006 -0.000013 5.191770 -0.468544 -91.106100 11.754300 -0.000000 0.000003 -0.310372 -0.447357 -23.600200 -2.192510 6.469440 -0.000001 -173.355000 6.782770 124.348000 -39.081100 -0.002282 -0.040193 -0.443316 -0.350125 128.085000 -40.985400 0.000008 0.000006 2.073940 0.513335 -12.051000 -11.754300 -0.000006 -0.000006 -0.011192 -0.112342 -21.151800
0.000000 0.000000 0.000000 0.000000 0.000000 -0.000000 -0.790565 85.410100 4.517720 85.404700 9.893650 -12.590800 15.735700 0.000005 -0.000001 47.330700 82.300400 -45.308500 8.984550 -0.406207 -0.000000 3.799310 -10.493600 4.397710 16.377300 -0.000001 -0.000001 -2.416510 -3.029990 0.607125 6.456720 -0.000001 -0.000000 -5.737620 0.969032 4.595120 12.994200 -0.242716 4.980390 -89.299900 -2.391700 -73.683600 5.348090 -0.000007 -0.000001 -58.538400 19.905400 -40.549600 24.328600 0.000019 0.000005 19.087400 -4.739080 -103.430000 22.291600 -0.000001 0.000005 1.154550 5.466060 -5.213100 12.994500 -0.242716 -4.980390 88.533400 4.502630 -71.932100 -5.348130 -0.000001 -0.000004 -58.525600 31.279600 24.445400 -24.328900 0.000322 -0.000009 -3.914390 -2.955990 -52.992200 -22.291500 -0.000108 -0.000004 6.390670 5.599940 -11.339300 -2.192480 -6.469440 -0.000000 -171.714000 -2.078100 -4.877370 39.081100 -0.000007 -0.000012 -0.010495 0.012745 39.474600 40.985400 -0.000006 -0.000013 1.643600 3.635490 -71.006600 11.754300 -0.000000 0.000003 -0.198096 -0.641944 -44.077000 -2.192510 6.469440 -0.000001 -167.741000 2.690200 119.773000 -39.081100 -0.002282 -0.040193 -0.259801 -0.118679 114.261000 -40.985400 0.000008 0.000006 7.471960 -4.681450 -33.565600 -11.754300 -0.000006 -0.000006 -0.008541 -0.092395 -20.336000
0.000000 0.000000 0.000000 0.000000 0.000000 -0.000000 -1.563940 89.172100 16.873400 85.142900 9.948670 -14.064500 15.735700 0.000005 -0.000001 40.624300 82.470600 -38.065000 8.984550 -0.406207 -0.000000 2.347690 -11.542500 5.364350 16.377300 -0.000001 -0.000001 -1.645320 -2.388280 0.678315 6.456720 -0.000001 -0.000000 -5.698890 2.735230 4.188850 12.994200 -0.242716 4.980390 -88.833100 -3.842440 -73.093500 5.348090 -0.000007 -0.000001 -60.609200 20.978000 -40.330800 24.328600 0.000019 0.000005 17.400800 -5.248660 -106.274000 22.291600 -0.000001 0.000005 0.035792 5.443580 -4.415090 12.994500 -0.242716 -4.980390 89.446700 1.630460 -71.250700 -5.348130 -0.000001 -0.000004 -62.226100 28.365900 30.755600 -24.328900 0.000322 -0.000009 -4.072580 -2.776930 -55.754800 -22.291500 -0.000108 -0.000004 6.609110 5.596210 -11.117900 -2.192480 -6.469440 -0.000000 -167.588000 -8.509150 1.171130 39.081100 -0.000007 -0.000012 0.015407 -0.027182 29.543500 40.985400 -0.000006 -0.000013 -1.739660 10.369000 -42.788000 11.754300 -0.000000 0.000003 -0.193212 -0.633719 -43.689100 -2.192510 6.469440 -0.000001 -168.270000 -0.640076 119.851000 -39.081100 -0.002282 -0.040193 -0.035199 -0.004131 95.993400 -40.985400 0.000008 0.000006 8.290010 -11.524500 -47.150100 -11.754300 -0.000006 -0.000006 -0.011288 -0.113022 -21.179600
